# xmcd CD database file
#
# Track frame offsets:
#	150
#	25816
#	39291
#	51890
#	65295
#	79521
#	139216
#	190653
#	257071
#	272910
#
# Disc length: 3642 seconds
#
# Revision: 0
# Processed by: cddbd v1.5.2PL0 Copyright (c) Steve Scherf et al.
# Submitted via: CDex 1.70beta2
#
DISCID=820e380a
DTITLE=Tony Fruscella - Tony's Blues
DYEAR=1999
DGENRE=Jazz
TTITLE0=Tony's Blues
TTITLE1=Darn That Dream
TTITLE2=Tangerine
TTITLE3=Loopadoo
TTITLE4=P.U. Stomp
TTITLE5=Scrapple From the Apple
TTITLE6=Night Train
TTITLE7=Night in Tunisia
TTITLE8=Lover Man
TTITLE9=not available
EXTD=YEAR: 1999
EXTT0=
EXTT1=
EXTT2=
EXTT3=
EXTT4=
EXTT5=
EXTT6=
EXTT7=
EXTT8=
EXTT9=
PLAYORDER=
